<svg xmlns="http://www.w3.org/2000/svg" xmlns:xlink="http://www.w3.org/1999/xlink" width="500" zoomAndPan="magnify" viewBox="0 0 375 374.999991" height="500" preserveAspectRatio="xMidYMid meet" version="1.0"><path fill="#2193e1" d="M 148.742188 0.152344 C 144.367188 -0.00390625 140.625 3.585938 140.625 8.117188 L 140.625 39.0625 C 140.625 43.4375 144.0625 46.875 148.4375 46.875 L 148.4375 47.179688 C 245.78125 50.929688 324.070312 129.21875 327.820312 226.5625 L 328.125 226.5625 C 328.125 230.9375 331.5625 234.375 335.9375 234.375 L 366.882812 234.375 C 371.414062 234.375 375.003906 230.632812 374.847656 226.257812 C 370.628906 103.445312 271.554688 4.371094 148.742188 0.152344 Z M 148.742188 78.277344 C 144.367188 78.121094 140.625 81.867188 140.625 86.242188 L 140.625 117.1875 C 140.625 121.5625 144.0625 125 148.4375 125 L 148.4375 125.457031 C 202.65625 129.050781 245.949219 172.34375 249.542969 226.5625 L 250 226.5625 C 250 230.9375 253.4375 234.375 257.8125 234.375 L 288.757812 234.375 C 293.132812 234.375 296.878906 230.632812 296.722656 226.257812 C 292.503906 146.570312 228.429688 82.496094 148.742188 78.277344 Z M 7.8125 93.75 C 3.4375 93.75 0 97.1875 0 101.5625 L 0 273.4375 C 0 329.375 45.625 375 101.5625 375 C 157.5 375 203.125 329.375 203.125 273.4375 C 203.125 217.5 157.5 171.875 101.5625 171.875 C 97.1875 171.875 93.75 175.3125 93.75 179.6875 L 93.75 226.5625 C 93.75 230.9375 97.1875 234.375 101.5625 234.375 C 123.125 234.375 140.625 251.875 140.625 273.4375 C 140.625 295 123.125 312.5 101.5625 312.5 C 80 312.5 62.5 295 62.5 273.4375 L 62.5 101.5625 C 62.5 97.1875 59.0625 93.75 54.6875 93.75 Z M 7.8125 93.75 " fill-opacity="1" fill-rule="nonzero"/></svg>